<svg xmlns="http://www.w3.org/2000/svg" width="40" height="40" viewBox="0 0 40 40">
    <path fill="#004DFF" fill-rule="nonzero" d="M29.464 15.813H10.536c-.295 0-.536-.264-.536-.586v-1.758c0-1.294.96-2.344 2.143-2.344h2.143v-2.54c0-.321.24-.585.535-.585h1.786c.295 0 .536.264.536.586v2.539h5.714v-2.54c0-.321.241-.585.536-.585h1.786c.294 0 .535.264.535.586v2.539h2.143c1.183 0 2.143 1.05 2.143 2.344v1.758c0 .322-.241.585-.536.585zm-18.928 1.562h18.928c.295 0 .536.264.536.586v12.695C30 31.95 29.04 33 27.857 33H12.143C10.96 33 10 31.95 10 30.656V17.961c0-.322.241-.586.536-.586zm5.178 9.96c0-.321-.24-.585-.535-.585h-1.786c-.295 0-.536.264-.536.586v1.953c0 .322.241.586.536.586h1.786c.294 0 .535-.264.535-.586v-1.953zm0-6.25c0-.321-.24-.585-.535-.585h-1.786c-.295 0-.536.264-.536.586v1.953c0 .322.241.586.536.586h1.786c.294 0 .535-.264.535-.586v-1.953zm5.715 6.25c0-.321-.241-.585-.536-.585h-1.786c-.294 0-.536.264-.536.586v1.953c0 .322.241.586.536.586h1.786c.294 0 .536-.264.536-.586v-1.953zm0-6.25c0-.321-.241-.585-.536-.585h-1.786c-.294 0-.536.264-.536.586v1.953c0 .322.241.586.536.586h1.786c.294 0 .536-.264.536-.586v-1.953zm5.714 6.25c0-.321-.241-.585-.536-.585h-1.786c-.294 0-.535.264-.535.586v1.953c0 .322.24.586.535.586h1.786c.295 0 .536-.264.536-.586v-1.953zm0-6.25c0-.321-.241-.585-.536-.585h-1.786c-.294 0-.535.264-.535.586v1.953c0 .322.24.586.535.586h1.786c.295 0 .536-.264.536-.586v-1.953z"/>
</svg>
