<svg xmlns="http://www.w3.org/2000/svg" width="40" height="40" viewBox="0 0 40 40">
    <g fill="none" fill-rule="evenodd" transform="translate(3 3)">
        <circle cx="17.5" cy="17.5" r="16.5" stroke="#004DFF" stroke-width="2"/>
        <path fill="#004DFF" fill-rule="nonzero" d="M25.56 8H10.539C9.718 8 9 8.59 9 9.402v15.055C9 25.273 9.717 26 10.538 26h15.018C26.38 26 27 25.269 27 24.457V9.402C27.005 8.59 26.381 8 25.56 8zM15 23h-3v-8h3v8zm-1.508-9h-.02C12.58 14 12 13.334 12 12.5c0-.85.594-1.5 1.508-1.5.913 0 1.472.646 1.492 1.5 0 .834-.579 1.5-1.508 1.5zM24 23h-2.619v-4.274c0-1.024-.381-1.724-1.329-1.724-.723 0-1.152.471-1.342.928-.072.165-.091.389-.091.617V23H16v-7.817h2.619v1.088C19 15.75 19.595 15 20.981 15 22.7 15 24 16.088 24 18.433V23z"/>
    </g>
</svg>
