<svg xmlns="http://www.w3.org/2000/svg" width="40" height="40" viewBox="0 0 40 40">
    <g fill="none" fill-rule="evenodd" transform="translate(3 3)">
        <circle cx="17.5" cy="17.5" r="16.5" stroke="#004DFF" stroke-width="2"/>
        <path fill="#004DFF" fill-rule="nonzero" d="M27 12.777a7.33 7.33 0 0 1-2.12.598 3.78 3.78 0 0 0 1.624-2.094 7.234 7.234 0 0 1-2.346.918A3.649 3.649 0 0 0 21.462 11c-2.041 0-3.693 1.695-3.693 3.785 0 .297.03.586.096.863-3.071-.156-5.794-1.664-7.614-3.957-.316.559-.5 1.211-.5 1.903 0 1.312.657 2.472 1.648 3.152a3.543 3.543 0 0 1-1.678-.473v.047c0 1.836 1.274 3.364 2.964 3.711a3.635 3.635 0 0 1-.973.133c-.236 0-.47-.023-.694-.07.469 1.504 1.835 2.597 3.452 2.629A7.295 7.295 0 0 1 9 24.289 10.148 10.148 0 0 0 14.653 26c6.8 0 10.516-5.77 10.516-10.773 0-.165-.004-.329-.011-.489A7.621 7.621 0 0 0 27 12.778z"/>
    </g>
</svg>
